<?xml version="1.0" encoding="iso-8859-1"?>
<!-- Uploaded to: SVG Repo, www.svgrepo.com, Generator: SVG Repo Mixer Tools -->
<svg height="800px" width="800px" version="1.1" id="Layer_1" xmlns="http://www.w3.org/2000/svg" xmlns:xlink="http://www.w3.org/1999/xlink" 
	 viewBox="0 0 511.683 511.683" xml:space="preserve">
<g>
	<path style="fill:#8697CB;" d="M308.505,0c0,44.138-52.966,44.138-52.966,44.138s-52.966,0-52.966-44.138l-44.138,8.828
		c0,0,6.78,13.559,11.935,34.366c10.161,40.995,27.471,79.448,49.858,115.262l0,0h35.31h35.31l0,0
		c22.387-35.814,39.698-74.266,49.858-115.262c5.155-20.807,11.935-34.366,11.935-34.366L308.505,0z"/>
	<path style="fill:#556080;" d="M396.781,511.56c0,0,0.088-14.892,0-17.673c-4.873-153.459-47.943-282.183-97.103-335.431h-79.448
		C221.695,240.403,260.686,419.629,396.781,511.56"/>
	<path style="fill:#8697CB;" d="M220.229,158.456h-8.828c-49.161,53.239-91.657,181.972-96.53,335.431
		c-0.282,8.854,6.135,16.296,14.574,17.796c79.06-3.293,142.159-67.46,143.616-146.979
		C234.777,287.277,221.085,206.293,220.229,158.456"/>
	<path style="fill:#424B63;" d="M273.059,364.699c-1.439,79.069-63.841,142.892-142.265,146.856h265.984
		c-56.867-38.409-96.733-92.072-124.028-147.509C272.856,364.267,272.953,364.479,273.059,364.699"/>
</g>
</svg>