<?xml version="1.0" encoding="utf-8"?>
<!-- Uploaded to: SVG Repo, www.svgrepo.com, Generator: SVG Repo Mixer Tools -->
<svg width="800px" height="800px" viewBox="0 0 1024 1024" class="icon"  version="1.1" xmlns="http://www.w3.org/2000/svg"><path d="M926.8 785.8h-831c-7 0-12.7-5.7-12.7-12.7V220.7c0-7 5.7-12.7 12.7-12.7h831c7 0 12.7 5.7 12.7 12.7v552.4c0 7.1-5.7 12.7-12.7 12.7z m-818.3-25.3h805.6v-527H108.5v527z" fill="#10457E" /><path d="M188.2 282.7h646.2v428.4H188.2z" fill="#9ED5E4" /><path d="M962 804.1H60.6c-13.3 0-24.1-10.8-24.1-24.1v-27c0-13.3 10.8-24.1 24.1-24.1H962c13.3 0 24.1 10.8 24.1 24.1v27c0.1 13.2-10.7 24.1-24.1 24.1z" fill="#FCFCFC" /><path d="M962.6 816.7H60c-20 0-36.2-16.3-36.2-36.2v-28.2c0-20 16.3-36.2 36.2-36.2h902.6c20 0 36.2 16.3 36.2 36.2v28.2c0.1 20-16.2 36.2-36.2 36.2zM60 741.5c-6 0-10.9 4.9-10.9 10.9v28.2c0 6 4.9 10.9 10.9 10.9h902.6c6 0 10.9-4.9 10.9-10.9v-28.2c0-6-4.9-10.9-10.9-10.9H60z" fill="#10457E" /></svg>