<?xml version="1.0" encoding="utf-8"?>
<!-- Uploaded to: SVG Repo, www.svgrepo.com, Generator: SVG Repo Mixer Tools -->
<svg width="800px" height="800px" viewBox="0 0 1024 1024" class="icon"  version="1.1" xmlns="http://www.w3.org/2000/svg"><path d="M843.5 941.2H260.3c-16.1 0-29.2-13.1-29.2-29.2V111.6c0-16.1 13.1-29.2 29.2-29.2h583.2c16.1 0 29.2 13.1 29.2 29.2V912c0 16.1-13.1 29.2-29.2 29.2zM260.3 108.4c-1.8 0-3.2 1.4-3.2 3.2V912c0 1.8 1.4 3.2 3.2 3.2h583.2c1.8 0 3.2-1.4 3.2-3.2V111.6c0-1.8-1.4-3.2-3.2-3.2H260.3z" fill="#10457E" /><path d="M313.2 188h477.4v647.7H313.2z" fill="#9ED5E4" /><path d="M451.2 928.2H177.7c-8.2 0-14.8-6.6-14.8-14.8V374.7c0-8.2 6.6-14.8 14.8-14.8h273.5c8.2 0 14.8 6.6 14.8 14.8v538.7c0 8.2-6.7 14.8-14.8 14.8z" fill="#FCFCFC" /><path d="M451.2 941.2H177.7c-15.3 0-27.8-12.5-27.8-27.8V374.7c0-15.3 12.5-27.8 27.8-27.8h273.5c15.3 0 27.8 12.5 27.8 27.8v538.7c0 15.4-12.5 27.8-27.8 27.8zM177.7 372.9c-1 0-1.8 0.8-1.8 1.8v538.7c0 1 0.8 1.8 1.8 1.8h273.5c1 0 1.8-0.8 1.8-1.8V374.7c0-1-0.8-1.8-1.8-1.8H177.7z" fill="#10457E" /><path d="M217.4 434.3h194.2v328.1H217.4z" fill="#9ED5E4" /><path d="M314.5 838.6m-31 0a31 31 0 1 0 62 0 31 31 0 1 0-62 0Z" fill="#154B8B" /></svg>